# xmcd
#
# Track frame offsets:
# 150
# 14774
# 50971
# 77567
# 94385
# 110071
# 144548
# 158376
# 172464
# 192381
# 208321
# 234022
# 250528
# 268104
# 288663
# 303682
#
# Disc length: 4258 seconds
#
#
# Revision: 0
# Processed by: cddbd v1.5.2PL0 Copyright (c) Steve Scherf et al.
# Submitted via: FreeRIP 2.951 
#
DISCID=f410a010
DTITLE=Marcelinho de Lima and Camargo - Acústico - Ao Vivo
DYEAR=2007
DGENRE=Sertanejo
TTITLE0=Parei pra pensar
TTITLE1=As águas de São Francisco
TTITLE2=Ela foi embora
TTITLE3=Voar
TTITLE4=Chorando Confessa
TTITLE5=Na Hora de Amar
TTITLE6=Você não Sabe o que é Amar
TTITLE7=Pago pra Ver
TTITLE8=Eu Sei
TTITLE9=Poder Dizer
TTITLE10=Bão Também
TTITLE11=Saudades de Você
TTITLE12=Voz do Coração
TTITLE13=Então Chega pra Cá
TTITLE14=Pouco Tempo
TTITLE15=Você faz Falta
EXTD=
EXTT0=
EXTT1=
EXTT2=
EXTT3=
EXTT4=
EXTT5=
EXTT6=
EXTT7=
EXTT8=
EXTT9=
EXTT10=
EXTT11=
EXTT12=
EXTT13=
EXTT14=
EXTT15=
PLAYORDER=
